<svg width="38" height="38" viewBox="0 0 38 38" fill="none" xmlns="http://www.w3.org/2000/svg">
<path d="M34.1842 15.5641C33.9146 15.152 33.6916 14.7112 33.5192 14.2499C33.3805 13.7693 33.2903 13.276 33.25 12.7774C33.2308 11.5663 32.8803 10.3836 32.2367 9.35745C31.4569 8.42029 30.4317 7.71857 29.2758 7.33078C28.8092 7.15262 28.3632 6.92434 27.9458 6.64995C27.5681 6.33753 27.2233 5.98739 26.9167 5.60495C26.1797 4.62022 25.1892 3.85407 24.0508 3.38828C22.9056 3.117 21.7089 3.15526 20.5833 3.49911C19.5732 3.7365 18.5218 3.7365 17.5117 3.49911C16.3516 3.13495 15.1137 3.09661 13.9333 3.38828C12.8008 3.85653 11.816 4.62248 11.0833 5.60495C10.7718 5.98818 10.4216 6.33836 10.0383 6.64995C9.62095 6.92434 9.17501 7.15262 8.70835 7.33078C7.54676 7.71596 6.51581 8.41788 5.73168 9.35745C5.09915 10.3868 4.75972 11.5693 4.75001 12.7774C4.70969 13.276 4.61952 13.7693 4.48085 14.2499C4.3063 14.7003 4.08332 15.1303 3.81585 15.5324C3.09925 16.5546 2.67749 17.7542 2.59668 18.9999C2.68317 20.2348 3.10468 21.4226 3.81585 22.4358C4.08332 22.8379 4.3063 23.268 4.48085 23.7183C4.61091 24.2103 4.69049 24.7143 4.71835 25.2224C4.73757 26.4336 5.08802 27.6163 5.73168 28.6424C6.5115 29.5796 7.53666 30.2813 8.69251 30.6691C9.15917 30.8473 9.60512 31.0756 10.0225 31.3499C10.4057 31.6615 10.7559 32.0117 11.0675 32.3949C11.8045 33.3797 12.795 34.1458 13.9333 34.6116C14.3794 34.7496 14.8439 34.819 15.3108 34.8174C16.0384 34.7947 16.7609 34.6885 17.4642 34.5008C18.4743 34.2634 19.5257 34.2634 20.5358 34.5008C21.6811 34.8562 22.9013 34.8945 24.0667 34.6116C25.1993 34.1434 26.184 33.3774 26.9167 32.3949C27.2283 32.0117 27.5784 31.6615 27.9617 31.3499C28.3791 31.0756 28.825 30.8473 29.2917 30.6691C30.4475 30.2813 31.4727 29.5796 32.2525 28.6424C32.8906 27.6147 33.2355 26.4321 33.25 25.2224C33.2779 24.7143 33.3574 24.2103 33.4875 23.7183C33.6621 23.268 33.885 22.8379 34.1525 22.4358C34.8749 21.426 35.3075 20.2379 35.4033 18.9999C35.3169 17.7651 34.8954 16.5773 34.1842 15.5641Z" fill="#2C1818"/>
<path d="M17.4167 15.0416C17.4167 15.5114 17.2774 15.9705 17.0164 16.3611C16.7554 16.7517 16.3845 17.0561 15.9505 17.2358C15.5165 17.4156 15.039 17.4626 14.5783 17.371C14.1176 17.2794 13.6944 17.0532 13.3623 16.721C13.0301 16.3889 12.8039 15.9657 12.7123 15.505C12.6206 15.0443 12.6677 14.5667 12.8474 14.1328C13.0272 13.6988 13.3316 13.3279 13.7222 13.0669C14.1127 12.8059 14.5719 12.6666 15.0417 12.6666C15.6715 12.6666 16.2756 12.9169 16.721 13.3623C17.1664 13.8077 17.4167 14.4117 17.4167 15.0416ZM22.9583 20.5833C22.4886 20.5833 22.0294 20.7226 21.6388 20.9836C21.2483 21.2445 20.9439 21.6155 20.7641 22.0494C20.5843 22.4834 20.5373 22.9609 20.629 23.4216C20.7206 23.8823 20.9468 24.3055 21.2789 24.6377C21.6111 24.9698 22.0343 25.196 22.495 25.2877C22.9557 25.3793 23.4332 25.3323 23.8672 25.1525C24.3012 24.9728 24.6721 24.6683 24.9331 24.2778C25.194 23.8872 25.3333 23.428 25.3333 22.9583C25.3333 22.3284 25.0831 21.7243 24.6377 21.2789C24.1923 20.8335 23.5882 20.5833 22.9583 20.5833ZM15.3742 24.8741L24.8742 15.3741C25.1723 15.076 25.3398 14.6716 25.3398 14.25C25.3398 13.8283 25.1723 13.4239 24.8742 13.1258C24.576 12.8277 24.1716 12.6602 23.75 12.6602C23.3283 12.6602 22.924 12.8277 22.6258 13.1258L13.1258 22.6258C12.9774 22.773 12.8596 22.9481 12.7792 23.1411C12.6989 23.334 12.6575 23.5409 12.6575 23.75C12.6575 23.959 12.6989 24.1659 12.7792 24.3589C12.8596 24.5518 12.9774 24.7269 13.1258 24.8741C13.273 25.0225 13.4481 25.1403 13.6411 25.2207C13.834 25.3011 14.041 25.3425 14.25 25.3425C14.459 25.3425 14.666 25.3011 14.8589 25.2207C15.0518 25.1403 15.227 25.0225 15.3742 24.8741Z" fill="#FAA41A"/>
</svg>
