<svg width="15" height="15" viewBox="0 0 15 15" fill="none" xmlns="http://www.w3.org/2000/svg">
<g clip-path="url(#clip0_62_51)">
<path d="M15 7.5C15 3.35795 11.642 0 7.5 0C3.35795 0 0 3.35795 0 7.5C0 11.642 3.35795 15 7.5 15C11.642 15 15 11.642 15 7.5ZM0.681818 7.5C0.681818 3.73432 3.73432 0.681818 7.5 0.681818C11.2657 0.681818 14.3182 3.73432 14.3182 7.5C14.3182 11.2657 11.2657 14.3182 7.5 14.3182C3.73432 14.3182 0.681818 11.2657 0.681818 7.5Z" fill="#FAA41A"/>
<path d="M7.78772 11.8289V7.50001H9.21613L9.44181 6.06547H7.78772V5.34615C7.78772 4.97183 7.91045 4.61456 8.44772 4.61456H9.52158V3.18274H7.99704C6.71522 3.18274 6.36545 4.02683 6.36545 5.19683V6.06478H5.4859V7.50001H6.36545V11.8289H7.78772Z" fill="#FAA41A"/>
</g>
<defs>
<clipPath id="clip0_62_51">
<rect width="15" height="15" fill="white"/>
</clipPath>
</defs>
</svg>
