<svg width="308" height="308" viewBox="0 0 308 308" fill="none" xmlns="http://www.w3.org/2000/svg">
<path d="M166.833 211.75C166.833 215.154 165.481 218.418 163.075 220.824C160.668 223.231 157.404 224.583 154 224.583C150.596 224.583 147.332 223.231 144.925 220.824C142.519 218.418 141.167 215.154 141.167 211.75C141.167 208.346 142.519 205.082 144.925 202.675C147.332 200.269 150.596 198.917 154 198.917C157.404 198.917 160.668 200.269 163.075 202.675C165.481 205.082 166.833 208.346 166.833 211.75ZM134.532 113.382C135.969 110.521 137.971 107.941 140.794 106.067C143.554 104.207 147.66 102.667 154 102.667C158.928 102.667 163.83 104.181 167.27 106.76C168.918 107.924 170.253 109.478 171.155 111.282C172.058 113.087 172.5 115.087 172.441 117.104C172.441 123.264 169.644 127.499 164.485 132.324C162.78 133.889 161.029 135.404 159.236 136.867C157.968 137.92 156.71 138.986 155.463 140.063C152.306 142.796 148.738 146.146 145.992 150.265L144.375 152.704V173.25C144.375 175.803 145.389 178.251 147.194 180.056C148.999 181.861 151.447 182.875 154 182.875C156.553 182.875 159.001 181.861 160.806 180.056C162.611 178.251 163.625 175.803 163.625 173.25V158.877C164.78 157.593 166.23 156.207 168.078 154.603C168.887 153.897 169.875 153.076 170.927 152.203C173.057 150.407 175.521 148.353 177.6 146.403C184.479 139.986 191.691 131.003 191.691 117.104C191.75 112.098 190.613 107.151 188.374 102.673C186.135 98.1952 182.86 94.3169 178.82 91.3605C171.582 85.9191 162.444 83.4166 154 83.4166C144.298 83.4166 136.38 85.8678 130.117 90.0515C124.636 93.7573 120.224 98.8376 117.322 104.784C116.287 107.053 116.173 109.635 117.005 111.986C117.836 114.337 119.547 116.274 121.777 117.389C124.008 118.503 126.585 118.708 128.964 117.961C131.343 117.214 133.339 115.572 134.532 113.382Z" fill="#DF0000"/>
<path fill-rule="evenodd" clip-rule="evenodd" d="M126.588 15.4001C134.537 9.56592 144.14 6.42004 154 6.42004C163.86 6.42004 173.463 9.56592 181.412 15.4001L199.058 28.3617C202.574 30.9284 206.668 32.6352 210.98 33.2897L232.617 36.6136C242.362 38.1078 251.377 42.6719 258.349 49.6422C265.322 56.6125 269.889 65.6255 271.386 75.3702L274.71 97.0201C275.365 101.332 277.059 105.426 279.638 108.942L292.6 126.588C298.434 134.537 301.58 144.14 301.58 154C301.58 163.86 298.434 173.463 292.6 181.412L279.638 199.058C277.059 202.577 275.369 206.667 274.71 210.98L271.386 232.617C269.892 242.362 265.328 251.377 258.358 258.349C251.388 265.322 242.375 269.889 232.63 271.387L210.98 274.71C206.667 275.369 202.577 277.059 199.058 279.638L181.412 292.6C173.463 298.434 163.86 301.58 154 301.58C144.14 301.58 134.537 298.434 126.588 292.6L108.942 279.638C105.423 277.059 101.333 275.369 97.02 274.71L75.383 271.387C65.6377 269.892 56.6233 265.328 49.6507 258.358C42.6781 251.388 38.1109 242.375 36.6135 232.63L33.2897 210.98C32.6315 206.667 30.9408 202.577 28.3617 199.058L15.4 181.412C9.56586 173.463 6.41998 163.86 6.41998 154C6.41998 144.14 9.56586 134.537 15.4 126.588L28.3617 108.942C30.9408 105.423 32.6315 101.333 33.2897 97.0201L36.6135 75.3831C38.1077 65.6378 42.6719 56.6234 49.6422 49.6508C56.6125 42.6781 65.6254 38.111 75.3702 36.6136L97.02 33.2897C101.333 32.6315 105.423 30.9409 108.942 28.3617L126.588 15.4001ZM170.016 30.9156C165.371 27.5083 159.761 25.6712 154 25.6712C148.239 25.6712 142.629 27.5083 137.984 30.9156L120.325 43.8772C114.307 48.2937 107.312 51.1907 99.9332 52.3216L78.2962 55.6326C72.598 56.5059 67.3273 59.1749 63.251 63.2511C59.1748 67.3273 56.5058 72.5981 55.6325 78.2962L52.3215 99.9332C51.1926 107.316 48.2956 114.317 43.8772 120.338L30.9155 137.984C27.5083 142.629 25.6712 148.239 25.6712 154C25.6712 159.761 27.5083 165.371 30.9155 170.016L43.8772 187.675C48.2937 193.693 51.1906 200.688 52.3215 208.067L55.6325 229.704C56.5083 235.4 59.1784 240.668 63.2544 244.741C67.3305 248.815 72.5998 251.482 78.2962 252.355L99.9332 255.691C107.315 256.816 114.315 259.709 120.338 264.123L137.984 277.085C142.629 280.492 148.239 282.329 154 282.329C159.761 282.329 165.371 280.492 170.016 277.085L187.675 264.123C193.692 259.706 200.688 256.809 208.067 255.679L229.704 252.368C235.4 251.492 240.667 248.822 244.741 244.746C248.815 240.67 251.482 235.4 252.355 229.704L255.691 208.067C256.816 200.685 259.709 193.685 264.123 187.662L277.084 170.016C280.492 165.371 282.329 159.761 282.329 154C282.329 148.239 280.492 142.629 277.084 137.984L264.123 120.325C259.706 114.308 256.809 107.312 255.678 99.9332L252.367 78.2962C251.494 72.5981 248.825 67.3273 244.749 63.2511C240.673 59.1749 235.402 56.5059 229.704 55.6326L208.067 52.3216C200.684 51.1927 193.683 48.2956 187.662 43.8772L170.016 30.9156Z" fill="#DF0000"/>
</svg>
