<svg width="403" height="417" viewBox="0 0 403 417" fill="none" xmlns="http://www.w3.org/2000/svg">
<path d="M361.3 170.97C358.373 166.369 355.927 161.478 354.003 156.375C352.324 151.132 351.274 145.707 350.875 140.216C350.646 126.928 346.802 113.954 339.755 102.686C331.137 92.4689 319.907 84.7824 307.264 80.4463C302.104 78.4549 297.156 75.952 292.495 72.975C288.451 69.4944 284.73 65.6564 281.375 61.5075C273.393 50.6701 262.569 42.2515 250.1 37.1825C237.475 34.1993 224.285 34.619 211.875 38.3988C200.79 41.0038 189.252 41.0038 178.168 38.3988C165.541 34.493 152.093 34.0727 139.248 37.1825C126.652 42.1961 115.702 50.6193 107.625 61.5075C104.16 65.6719 100.322 69.5104 96.1575 72.975C91.4962 75.952 86.5486 78.4549 81.3888 80.4463C68.6822 84.7544 57.3894 92.4431 48.7238 102.686C41.8598 114.007 38.1967 126.978 38.125 140.216C37.7262 145.707 36.6764 151.132 34.9975 156.375C33.0512 161.358 30.6062 166.131 27.7 170.623C19.8661 181.79 15.2393 194.89 14.3213 208.5C15.3014 221.99 19.9254 234.962 27.7 246.03C30.6731 250.482 33.1219 255.263 34.9975 260.278C36.5092 265.659 37.384 271.199 37.6038 276.784C37.8148 290.074 41.6604 303.054 48.7238 314.314C57.3417 324.531 68.5714 332.218 81.215 336.554C86.3749 338.545 91.3225 341.048 95.9838 344.025C100.148 347.49 103.987 351.328 107.451 355.493C115.38 366.382 126.22 374.813 138.726 379.818C143.627 381.309 148.72 382.07 153.843 382.076C161.689 381.826 169.49 380.778 177.125 378.949C188.191 376.183 199.767 376.183 210.832 378.949C223.49 382.705 236.912 383.065 249.753 379.991C262.258 374.987 273.099 366.556 281.027 355.666C284.492 351.502 288.331 347.663 292.495 344.199C297.156 341.222 302.104 338.719 307.264 336.728C319.907 332.391 331.137 324.705 339.755 314.488C346.818 303.227 350.664 290.248 350.875 276.958C351.095 271.372 351.97 265.832 353.481 260.451C355.428 255.468 357.873 250.695 360.779 246.204C368.768 235.141 373.576 222.102 374.679 208.5C373.699 195.01 369.075 182.038 361.3 170.97Z" fill="#FAA41A"/>
<path d="M177.125 278C174.838 278.013 172.572 277.575 170.455 276.71C168.338 275.846 166.412 274.572 164.789 272.961L112.664 220.836C111.044 219.216 109.759 217.293 108.882 215.176C108.005 213.06 107.554 210.791 107.554 208.5C107.554 203.873 109.392 199.436 112.664 196.164C115.936 192.892 120.373 191.054 125 191.054C129.627 191.054 134.064 192.892 137.336 196.164L177.125 236.126L251.664 161.414C254.936 158.142 259.373 156.304 264 156.304C268.627 156.304 273.064 158.142 276.336 161.414C279.608 164.686 281.446 169.123 281.446 173.75C281.446 178.377 279.608 182.815 276.336 186.086L189.461 272.961C187.838 274.572 185.912 275.846 183.795 276.71C181.678 277.575 179.412 278.013 177.125 278Z" fill="#2C1818"/>
</svg>
