<svg width="384" height="384" viewBox="0 0 384 384" fill="none" xmlns="http://www.w3.org/2000/svg">
<g clip-path="url(#clip0_88_30)">
<path d="M355.547 109.343C353.181 91.39 343.703 72.1743 327.759 56.2351C311.825 40.3001 292.614 30.8221 274.665 28.4568C266.543 27.3839 255.699 22.8987 249.199 17.9096C234.828 6.88929 214.54 0 192 0C169.46 0 149.172 6.88929 134.801 17.9096C128.301 22.8944 117.456 27.3839 109.335 28.4568C91.385 30.8221 72.1743 40.3008 56.2394 56.2351C40.2958 72.1743 30.8171 91.3893 28.4525 109.343C27.3839 117.464 22.8944 128.305 17.9096 134.801C6.88571 149.167 0 169.46 0 192C0 214.54 6.88571 234.832 17.9096 249.199C22.8987 255.699 27.3839 266.535 28.4525 274.655C30.8179 292.609 40.2958 311.825 56.2394 327.763C72.1743 343.698 91.385 353.177 109.335 355.542C117.456 356.614 128.301 361.103 134.801 366.088C149.167 377.109 169.455 383.999 192 383.999C214.544 383.999 234.828 377.109 249.199 366.088C255.699 361.103 266.543 356.614 274.665 355.542C292.613 353.176 311.825 343.698 327.759 327.763C343.703 311.824 353.181 292.609 355.547 274.655C356.615 266.534 361.105 255.694 366.089 249.199C377.114 234.832 383.999 214.543 383.999 192C383.999 169.46 377.114 149.167 366.089 134.801C361.101 128.305 356.615 117.464 355.547 109.343ZM314.374 129.133L176.402 267.104L154.327 289.18C148.23 295.278 138.348 295.278 132.251 289.18L110.176 267.104L69.6207 226.554C63.5237 220.456 63.5237 210.576 69.6207 204.478L91.6963 182.403C97.7934 176.306 107.675 176.306 113.772 182.403L143.285 211.915L270.219 84.9817C276.316 78.8847 286.197 78.8847 292.295 84.9817L314.37 107.057C320.471 113.154 320.471 123.04 314.374 129.133Z" fill="#FAA41A"/>
</g>
<defs>
<clipPath id="clip0_88_30">
<rect width="384" height="384" fill="white"/>
</clipPath>
</defs>
</svg>
